<svg width="53" height="31" viewBox="0 0 53 31" fill="none" xmlns="http://www.w3.org/2000/svg">
<path d="M0 0H52.5V31H19.5L0 0Z" fill="#DD4056"/>
<g clip-path="url(#clip0_13_241)">
<g filter="url(#filter0_d_13_241)">
<path d="M33.5 16.2222C36.9518 16.2222 39.75 13.4862 39.75 10.1111C39.75 6.73604 36.9518 4 33.5 4C30.0482 4 27.25 6.73604 27.25 10.1111C27.25 13.4862 30.0482 16.2222 33.5 16.2222Z" fill="white"/>
<path d="M43.5 26C43.5 23.4068 42.4464 20.9198 40.5711 19.0861C38.6957 17.2524 36.1522 16.2222 33.5 16.2222C30.8478 16.2222 28.3043 17.2524 26.4289 19.0861C24.5536 20.9198 23.5 23.4068 23.5 26" fill="white"/>
<path d="M33.5 16.2222C36.9518 16.2222 39.75 13.4862 39.75 10.1111C39.75 6.73604 36.9518 4 33.5 4C30.0482 4 27.25 6.73604 27.25 10.1111C27.25 13.4862 30.0482 16.2222 33.5 16.2222ZM33.5 16.2222C36.1522 16.2222 38.6957 17.2524 40.5711 19.0861C42.4464 20.9198 43.5 23.4068 43.5 26M33.5 16.2222C30.8478 16.2222 28.3043 17.2524 26.4289 19.0861C24.5536 20.9198 23.5 23.4068 23.5 26" stroke="#DD4056" stroke-linecap="round" stroke-linejoin="round"/>
</g>
</g>
<defs>
<filter id="filter0_d_13_241" x="16" y="0.5" width="35" height="37" filterUnits="userSpaceOnUse" color-interpolation-filters="sRGB">
<feFlood flood-opacity="0" result="BackgroundImageFix"/>
<feColorMatrix in="SourceAlpha" type="matrix" values="0 0 0 0 0 0 0 0 0 0 0 0 0 0 0 0 0 0 127 0" result="hardAlpha"/>
<feOffset dy="4"/>
<feGaussianBlur stdDeviation="3.5"/>
<feComposite in2="hardAlpha" operator="out"/>
<feColorMatrix type="matrix" values="0 0 0 0 0 0 0 0 0 0 0 0 0 0 0 0 0 0 0.25 0"/>
<feBlend mode="normal" in2="BackgroundImageFix" result="effect1_dropShadow_13_241"/>
<feBlend mode="normal" in="SourceGraphic" in2="effect1_dropShadow_13_241" result="shape"/>
</filter>
<clipPath id="clip0_13_241">
<rect width="24" height="24" fill="white" transform="translate(21.5 3)"/>
</clipPath>
</defs>
</svg>
