<svg width="23" height="23" viewBox="0 0 23 23" fill="none" xmlns="http://www.w3.org/2000/svg">
<path d="M17.1458 5.6875H17.1562M6.20833 1H16.625C19.5015 1 21.8333 3.33185 21.8333 6.20833V16.625C21.8333 19.5015 19.5015 21.8333 16.625 21.8333H6.20833C3.33185 21.8333 1 19.5015 1 16.625V6.20833C1 3.33185 3.33185 1 6.20833 1ZM15.5833 10.7604C15.7119 11.6273 15.5638 12.5127 15.1602 13.2906C14.7565 14.0686 14.1179 14.6994 13.335 15.0934C12.5522 15.4874 11.665 15.6246 10.7998 15.4853C9.93451 15.3461 9.13517 14.9376 8.51546 14.3179C7.89575 13.6982 7.48722 12.8988 7.34799 12.0336C7.20875 11.1683 7.3459 10.2811 7.73992 9.49831C8.13395 8.71547 8.76478 8.07681 9.54269 7.67317C10.3206 7.26952 11.206 7.12145 12.0729 7.25C12.9572 7.38113 13.7759 7.79319 14.408 8.42532C15.0401 9.05745 15.4522 9.87612 15.5833 10.7604Z" stroke="white" stroke-opacity="0.75" stroke-width="2" stroke-linecap="round" stroke-linejoin="round"/>
</svg>
