<svg width="22" height="22" viewBox="0 0 22 22" fill="none" xmlns="http://www.w3.org/2000/svg">
<path d="M9.07491 20.0001C9.26996 20.3041 9.55049 20.5566 9.88831 20.7321C10.2261 20.9076 10.6093 21 10.9994 21C11.3895 21 11.7727 20.9076 12.1105 20.7321C12.4483 20.5566 12.7288 20.3041 12.9239 20.0001M1.29031 14.3261C1.14515 14.4692 1.04936 14.6473 1.01458 14.8386C0.979807 15.0299 1.00754 15.2261 1.09442 15.4035C1.1813 15.5808 1.32357 15.7316 1.50393 15.8375C1.68429 15.9435 1.89496 15.9999 2.11032 16.0001H19.8885C20.1038 16.0001 20.3145 15.9439 20.495 15.8382C20.6755 15.7325 20.8179 15.5818 20.905 15.4046C20.9921 15.2273 21.0201 15.0311 20.9856 14.8398C20.9511 14.6486 20.8556 14.4704 20.7107 14.3271C19.2329 12.9561 17.6662 11.499 17.6662 7.00003C17.6662 5.40872 16.9638 3.88259 15.7135 2.75737C14.4633 1.63214 12.7675 1 10.9994 1C9.23125 1 7.53552 1.63214 6.28525 2.75737C5.03498 3.88259 4.33259 5.40872 4.33259 7.00003C4.33259 11.499 2.76478 12.9561 1.29031 14.3261Z" stroke="white" stroke-width="2" stroke-linecap="round" stroke-linejoin="round"/>
</svg>
