<svg width="20" height="18" viewBox="0 0 20 18" fill="none" xmlns="http://www.w3.org/2000/svg">
<path d="M8.57013 0.685259C8.87309 -0.228438 10.1655 -0.228437 10.4685 0.68526L12.0415 5.42915C12.1771 5.83826 12.5596 6.11443 12.9906 6.11443H18.0371C19.0107 6.11443 19.4102 7.36437 18.617 7.92906L14.5695 10.8107C14.2119 11.0653 14.0622 11.5234 14.2003 11.9401L15.7545 16.6274C16.0588 17.5451 15.013 18.3175 14.2254 17.7567L10.0993 14.8191C9.75214 14.572 9.28649 14.572 8.93933 14.8191L4.81325 17.7567C4.0256 18.3175 2.97979 17.5451 3.28409 16.6274L4.8383 11.9401C4.97646 11.5234 4.82671 11.0653 4.4691 10.8107L0.421592 7.92906C-0.371555 7.36437 0.0279458 6.11443 1.00157 6.11443H6.04798C6.479 6.11443 6.86151 5.83826 6.99716 5.42915L8.57013 0.685259Z" fill="#FFF645"/>
</svg>
