<svg width="28" height="28" viewBox="0 0 28 28" fill="none" xmlns="http://www.w3.org/2000/svg">
<path d="M1.30762 1.59439H3.80263L7.12099 17.1583C7.24272 17.7283 7.55845 18.2378 8.01384 18.5992C8.46923 18.9606 9.03579 19.1512 9.616 19.1382H21.8166C22.3844 19.1373 22.935 18.9419 23.3773 18.5842C23.8196 18.2264 24.1272 17.7279 24.2492 17.1708L26.3076 7.86005H5.13746M9.97778 25.3413C9.97778 26.0333 9.41925 26.5944 8.73027 26.5944C8.04129 26.5944 7.48277 26.0333 7.48277 25.3413C7.48277 24.6492 8.04129 24.0881 8.73027 24.0881C9.41925 24.0881 9.97778 24.6492 9.97778 25.3413ZM23.7003 25.3413C23.7003 26.0333 23.1418 26.5944 22.4528 26.5944C21.7638 26.5944 21.2053 26.0333 21.2053 25.3413C21.2053 24.6492 21.7638 24.0881 22.4528 24.0881C23.1418 24.0881 23.7003 24.6492 23.7003 25.3413Z" stroke="white" stroke-width="2" stroke-linecap="round" stroke-linejoin="round"/>
</svg>
