<svg width="27" height="27" viewBox="0 0 27 27" fill="none" xmlns="http://www.w3.org/2000/svg">
<path d="M19.7292 6.4375H19.7412M7.04167 1H19.125C22.4617 1 25.1667 3.70495 25.1667 7.04167V19.125C25.1667 22.4617 22.4617 25.1667 19.125 25.1667H7.04167C3.70495 25.1667 1 22.4617 1 19.125V7.04167C1 3.70495 3.70495 1 7.04167 1ZM17.9167 12.3221C18.0658 13.3277 17.894 14.3548 17.4258 15.2571C16.9576 16.1595 16.2167 16.8913 15.3086 17.3484C14.4005 17.8054 13.3715 17.9645 12.3677 17.803C11.364 17.6415 10.4368 17.1676 9.71793 16.4487C8.99907 15.7299 8.52518 14.8026 8.36366 13.7989C8.20215 12.7952 8.36125 11.7661 8.81831 10.858C9.27538 9.94995 10.0071 9.2091 10.9095 8.74087C11.8119 8.27265 12.839 8.10088 13.8446 8.25C14.8704 8.40211 15.82 8.8801 16.5533 9.61337C17.2866 10.3466 17.7646 11.2963 17.9167 12.3221Z" stroke="white" stroke-opacity="0.75" stroke-width="2" stroke-linecap="round" stroke-linejoin="round"/>
</svg>
