<svg width="27" height="27" viewBox="0 0 27 27" fill="none" xmlns="http://www.w3.org/2000/svg">
<path d="M11.0936 24.7501C11.3375 25.1301 11.6881 25.4457 12.1104 25.6651C12.5327 25.8845 13.0117 26 13.4992 26C13.9868 26 14.4658 25.8845 14.8881 25.6651C15.3104 25.4457 15.661 25.1301 15.9048 24.7501M1.36288 17.6576C1.18144 17.8366 1.0617 18.0591 1.01823 18.2982C0.974758 18.5373 1.00943 18.7826 1.11802 19.0043C1.22662 19.226 1.40446 19.4145 1.62991 19.5469C1.85536 19.6793 2.1187 19.7499 2.3879 19.7501H24.6106C24.8798 19.7502 25.1432 19.6799 25.3687 19.5477C25.5943 19.4156 25.7724 19.2273 25.8813 19.0057C25.9902 18.7842 26.0252 18.5389 25.9821 18.2998C25.9389 18.0607 25.8195 17.838 25.6384 17.6588C23.7911 15.9451 21.8327 14.1238 21.8327 8.50003C21.8327 6.5109 20.9548 4.60324 19.3919 3.19671C17.8291 1.79018 15.7094 1 13.4992 1C11.2891 1 9.1694 1.79018 7.60657 3.19671C6.04373 4.60324 5.16574 6.5109 5.16574 8.50003C5.16574 14.1238 3.20598 15.9451 1.36288 17.6576Z" stroke="white" stroke-width="2" stroke-linecap="round" stroke-linejoin="round"/>
</svg>
