<svg width="31" height="29" viewBox="0 0 31 29" fill="none" xmlns="http://www.w3.org/2000/svg">
<mask id="path-1-inside-1_225_78" fill="white">
<path d="M14.5486 0.927612C14.8479 0.00630164 16.1516 0.00630164 16.4509 0.927612L19.2048 9.40125C19.3387 9.81327 19.7228 10.0927 20.156 10.0927H29.0662C30.0345 10.0929 30.4372 11.3318 29.6541 11.9012L22.4451 17.1385C22.0946 17.3932 21.9479 17.8447 22.0818 18.2567L24.8357 26.7313C25.1345 27.6524 24.0802 28.4178 23.2966 27.8485L16.0876 22.6112C15.7372 22.3568 15.2622 22.3566 14.9119 22.6112L7.70386 27.8485C6.92025 28.4178 5.86584 27.6525 6.16479 26.7313L8.9187 18.2567C9.05246 17.8448 8.90573 17.3932 8.55542 17.1385L1.34644 11.9012C0.562843 11.3318 0.96564 10.0927 1.93433 10.0927H10.8445C11.2777 10.0927 11.6618 9.81327 11.7957 9.40125L14.5486 0.927612Z"/>
</mask>
<path d="M14.5486 0.927612L13.5975 0.618596L13.5975 0.618628L14.5486 0.927612ZM16.4509 0.927612L15.4999 1.23663L15.4999 1.2367L16.4509 0.927612ZM19.2048 9.40125L20.1559 9.09223L20.1559 9.09216L19.2048 9.40125ZM29.0662 10.0927L29.0664 9.09265H29.0662V10.0927ZM29.6541 11.9012L30.2418 12.7103L30.2421 12.71L29.6541 11.9012ZM22.4451 17.1385L21.8573 16.3295L21.8573 16.3295L22.4451 17.1385ZM22.0818 18.2567L21.1307 18.5657L21.1307 18.5658L22.0818 18.2567ZM24.8357 26.7313L25.7869 26.4227L25.7867 26.4223L24.8357 26.7313ZM23.2966 27.8485L23.8844 27.0395L23.8844 27.0395L23.2966 27.8485ZM16.0876 22.6112L16.6754 21.8022L16.6751 21.8019L16.0876 22.6112ZM14.9119 22.6112L14.3241 21.8022L14.3241 21.8022L14.9119 22.6112ZM7.70386 27.8485L8.29164 28.6575L8.29167 28.6575L7.70386 27.8485ZM6.16479 26.7313L5.21375 26.4223L5.21363 26.4226L6.16479 26.7313ZM8.9187 18.2567L9.86975 18.5658L9.86981 18.5656L8.9187 18.2567ZM8.55542 17.1385L9.14338 16.3297L9.14318 16.3295L8.55542 17.1385ZM1.34644 11.9012L0.758571 12.7102L0.758674 12.7103L1.34644 11.9012ZM11.7957 9.40125L12.7467 9.71026L12.7467 9.71023L11.7957 9.40125ZM14.5486 0.927612L15.4996 1.23663L15.4999 1.23663L16.4509 0.927612L17.402 0.618595C16.8033 -1.22402 14.1962 -1.22403 13.5975 0.618596L14.5486 0.927612ZM16.4509 0.927612L15.4999 1.2367L18.2538 9.71033L19.2048 9.40125L20.1559 9.09216L17.402 0.618529L16.4509 0.927612ZM19.2048 9.40125L18.2538 9.71026C18.5214 10.5338 19.289 11.0927 20.156 11.0927V10.0927V9.09265L20.1559 9.09223L19.2048 9.40125ZM20.156 10.0927V11.0927H29.0662V10.0927V9.09265H20.156V10.0927ZM29.0662 10.0927L29.0659 11.0927L29.066 11.0925L29.6541 11.9012L30.2421 12.71C31.8088 11.5709 31.0029 9.09317 29.0664 9.09265L29.0662 10.0927ZM29.6541 11.9012L29.0663 11.0922L21.8573 16.3295L22.4451 17.1385L23.0328 17.9476L30.2418 12.7103L29.6541 11.9012ZM22.4451 17.1385L21.8573 16.3295C21.1562 16.8389 20.8631 17.7418 21.1307 18.5657L22.0818 18.2567L23.0329 17.9478L23.0329 17.9476L22.4451 17.1385ZM22.0818 18.2567L21.1307 18.5658L23.8846 27.0404L24.8357 26.7313L25.7867 26.4223L23.0328 17.9477L22.0818 18.2567ZM24.8357 26.7313L23.8845 27.0399L23.8844 27.0395L23.2966 27.8485L22.7088 28.6575C24.2753 29.7956 26.3848 28.2658 25.7869 26.4227L24.8357 26.7313ZM23.2966 27.8485L23.8844 27.0395L16.6754 21.8022L16.0876 22.6112L15.4999 23.4202L22.7089 28.6575L23.2966 27.8485ZM16.0876 22.6112L16.6751 21.8019C15.9746 21.2934 15.0252 21.2928 14.3241 21.8022L14.9119 22.6112L15.4996 23.4202L15.5002 23.4205L16.0876 22.6112ZM14.9119 22.6112L14.3241 21.8022L7.11604 27.0395L7.70386 27.8485L8.29167 28.6575L15.4997 23.4202L14.9119 22.6112ZM7.70386 27.8485L7.11607 27.0395L7.11596 27.04L6.16479 26.7313L5.21363 26.4226C4.61535 28.2661 6.72537 29.7955 8.29164 28.6575L7.70386 27.8485ZM6.16479 26.7313L7.11584 27.0404L9.86975 18.5658L8.9187 18.2567L7.96766 17.9477L5.21375 26.4223L6.16479 26.7313ZM8.9187 18.2567L9.86981 18.5656C10.1373 17.7418 9.84402 16.8389 9.14338 16.3297L8.55542 17.1385L7.96746 17.9474L7.96759 17.9479L8.9187 18.2567ZM8.55542 17.1385L9.14318 16.3295L1.9342 11.0922L1.34644 11.9012L0.758674 12.7103L7.96766 17.9476L8.55542 17.1385ZM1.34644 11.9012L1.9343 11.0923L1.93433 11.0927V10.0927V9.09265C-0.00271872 9.09265 -0.808893 11.5711 0.758571 12.7102L1.34644 11.9012ZM1.93433 10.0927V11.0927H10.8445V10.0927V9.09265H1.93433V10.0927ZM10.8445 10.0927V11.0927C11.7115 11.0927 12.4791 10.5338 12.7467 9.71026L11.7957 9.40125L10.8446 9.09223L10.8445 9.09265V10.0927ZM11.7957 9.40125L12.7467 9.71023L15.4997 1.2366L14.5486 0.927612L13.5975 0.618628L10.8446 9.09226L11.7957 9.40125Z" fill="#FFF645" mask="url(#path-1-inside-1_225_78)"/>
</svg>
