<svg width="31" height="29" viewBox="0 0 31 29" fill="none" xmlns="http://www.w3.org/2000/svg">
<path d="M14.5489 0.927231C14.8483 0.00592041 16.1517 0.00592303 16.4511 0.927234L19.2045 9.4014C19.3384 9.81343 19.7223 10.0924 20.1555 10.0924L29.0658 10.0924C30.0345 10.0924 30.4373 11.332 29.6536 11.9014L22.445 17.1387C22.0945 17.3934 21.9479 17.8447 22.0818 18.2568L24.8352 26.7309C25.1345 27.6522 24.0801 28.4184 23.2963 27.849L16.0878 22.6116C15.7373 22.357 15.2627 22.357 14.9122 22.6116L7.70365 27.849C6.91994 28.4184 5.86546 27.6522 6.16481 26.7309L8.91824 18.2568C9.05211 17.8447 8.90545 17.3934 8.55497 17.1387L1.34641 11.9014C0.562692 11.332 0.96547 10.0924 1.93419 10.0924L10.8445 10.0924C11.2777 10.0924 11.6616 9.81343 11.7955 9.4014L14.5489 0.927231Z" fill="#FFF645"/>
</svg>
